<?xml version="1.0" encoding="UTF-8"?><svg id="_레이어_2" xmlns="http://www.w3.org/2000/svg" viewBox="0 0 32 32"><defs><style>.cls-1{fill:none;}.cls-1,.cls-2{stroke-width:0px;}.cls-2{fill:#ccc;}</style></defs><g id="_레이어_1-2"><rect class="cls-1" width="32" height="32"/><path class="cls-2" d="M16.28,11.57c2.5,0,4.54,2.04,4.54,4.54,0,.07,0,.14,0,.2l-4.74-4.74c.07,0,.14,0,.2,0M16.28,10.57c-.77,0-1.51.16-2.18.45l7.27,7.27c.29-.67.45-1.4.45-2.18,0-3.06-2.48-5.54-5.54-5.54h0Z"/><path class="cls-2" d="M5.61,4.92c-.38-.38-1-.38-1.38,0h0c-.38.38-.38,1,0,1.38l3.83,3.83C3.79,12.23.94,15.25.76,15.44l-.62.66.62.66c.28.3,6.89,7.33,15.24,7.33,1.82,0,3.56-.34,5.16-.87l3.85,3.85c.38.38,1,.38,1.38,0s.38-1,0-1.38L5.61,4.92ZM16,22.15c-6.06,0-11.31-4.35-13.13-6.04,1.12-1.04,3.55-3.08,6.67-4.5l1.88,1.88c-.42.78-.67,1.67-.67,2.62,0,3.06,2.48,5.54,5.54,5.54.95,0,1.84-.24,2.62-.67l.67.67c-1.15.3-2.34.5-3.58.5Z"/><path class="cls-2" d="M31.24,15.44c-.28-.3-6.89-7.33-15.24-7.33-1.47,0-2.88.23-4.21.58l1.63,1.63c.84-.16,1.7-.26,2.58-.26,6.06,0,11.31,4.35,13.13,6.04-1.02.95-3.11,2.73-5.82,4.11l1.45,1.45c3.8-2.06,6.31-4.72,6.48-4.9l.62-.66-.62-.66Z"/></g></svg>