<?xml version="1.0" encoding="UTF-8"?><svg id="_레이어_2" xmlns="http://www.w3.org/2000/svg" viewBox="0 0 32.08 32"><defs><style>.cls-1{fill:none;}.cls-1,.cls-2{stroke-width:0px;}.cls-2{fill:#ccc;}</style></defs><g id="_레이어_1-2"><rect class="cls-1" x=".04" width="32" height="32"/><path class="cls-2" d="M16.04,24.09c-8.45,0-15.14-7.11-15.42-7.42l-.62-.67.62-.67c.28-.3,6.97-7.42,15.42-7.42s15.14,7.11,15.42,7.42l.62.67-.62.67c-.28.3-6.97,7.42-15.42,7.42ZM2.76,16c1.84,1.71,7.15,6.11,13.28,6.11s11.44-4.4,13.28-6.11c-1.84-1.71-7.15-6.11-13.28-6.11s-11.44,4.4-13.28,6.11Z"/><circle class="cls-2" cx="16.33" cy="16" r="5.6"/></g></svg>