<?xml version="1.0" encoding="UTF-8"?><svg id="_레이어_2" xmlns="http://www.w3.org/2000/svg" viewBox="0 0 32 32"><defs><style>.cls-1{fill:none;}.cls-1,.cls-2{stroke-width:0px;}.cls-2{fill:#ccc;}</style></defs><g id="_레이어_1-2"><rect class="cls-1" width="32" height="32"/><path class="cls-2" d="M29,14h-4V5.76c0-3.18-2.58-5.76-5.76-5.76h-6.48c-3.18,0-5.76,2.58-5.76,5.76v8.24H3c-.55,0-1,.45-1,1v16c0,.55.45,1,1,1h26c.55,0,1-.45,1-1V15c0-.55-.45-1-1-1ZM9,5.76c0-2.07,1.69-3.76,3.76-3.76h6.48c2.07,0,3.76,1.69,3.76,3.76v8.24h-14V5.76ZM28,30H4v-14h24v14Z"/><circle class="cls-2" cx="16" cy="23" r="2.5"/></g></svg>